<?xml version="1.0" encoding="utf-8"?>
<svg version="1.1" xmlns="http://www.w3.org/2000/svg" xmlns:xlink="http://www.w3.org/1999/xlink" x="0px" y="0px"
	 viewBox="0 0 289.5 115.7" xml:space="preserve">
<path d="M125.2,45h17.6l0.6,5.3c1-1.2,2.2-2.3,3.5-3.1s2.6-1.5,4-2.1c1.4-0.5,2.7-0.9,3.9-1.1c1.3-0.2,2.4-0.3,3.3-0.3
	c2.7,0,5.1,0.4,7.4,1.1c2.3,0.8,4.2,1.9,5.9,3.6c1.7,1.6,3,3.7,3.9,6.3s1.4,5.6,1.4,9.1v32h-18.3V68.1c0-2.5-0.5-4.5-1.6-6
	c-1-1.5-2.7-2.3-5-2.3c-1.7,0-3,0.3-4.1,0.8s-1.9,1.2-2.6,2.1c-0.6,0.9-1.1,1.8-1.4,2.9c-0.3,1-0.4,2.1-0.4,3.2v27.1H125V45H125.2z"
	/>
<path d="M212.1,91.1c-2.3,2.4-4.6,4.1-7,5.1c-2.3,0.9-5.2,1.4-8.7,1.4c-1.7,0-3.4-0.2-5.3-0.7c-1.9-0.5-3.6-1.3-5.2-2.4
	c-1.6-1.2-2.9-2.7-3.9-4.7s-1.5-4.5-1.5-7.5s0.6-5.7,1.9-8c1.3-2.3,3.1-4.3,5.3-5.8s4.8-2.7,7.8-3.5c3-0.8,6-1.2,9.3-1.2
	c1.7,0,3,0,3.9,0.1c1,0.1,2.1,0.2,3.3,0.3v-1c0-1.3-0.3-2.4-0.8-3.2s-1.2-1.5-2.1-1.9c-0.8-0.5-1.7-0.8-2.7-1s-1.9-0.3-2.9-0.3
	c-3.2,0-6.1,0.4-8.5,1.2s-4.4,1.8-5.9,2.9l-6.9-10.5c2.2-1.7,5.2-3.3,9.1-4.8c3.9-1.4,8.9-2.2,14.9-2.2c3.5,0,6.7,0.5,9.6,1.4
	c2.9,0.9,5.4,2.3,7.5,4.1s3.7,4.1,4.9,6.8s1.7,5.9,1.7,9.5v30.7h-17.2L212.1,91.1z M212.1,73.9c-1.2-0.3-2.9-0.4-5-0.4
	c-3,0-5.3,0.6-6.7,1.8c-1.4,1.2-2.2,2.6-2.2,4.3c0,3.7,2,5.6,6,5.6c0.9,0,1.9-0.1,2.8-0.4c0.9-0.3,1.8-0.7,2.5-1.3
	c0.7-0.6,1.3-1.4,1.8-2.4s0.7-2.3,0.7-3.8L212.1,73.9L212.1,73.9z"/>
<path d="M236.5,43.4H254l0.8,5.3c0.9-1.4,2-2.5,3.2-3.3s2.4-1.5,3.6-1.9s2.3-0.7,3.3-0.9c1-0.1,1.9-0.2,2.6-0.2
	c3.5,0,6.7,0.7,9.4,2.1c2.8,1.4,5.1,3.3,6.9,5.6s3.2,5,4.2,8s1.5,6.2,1.5,9.5c0,4.5-0.7,8.4-2.1,11.9s-3.3,6.4-5.7,8.7
	c-2.4,2.4-5.3,4.2-8.6,5.5c-3.3,1.3-6.8,1.9-10.5,1.9c-1.6,0-3.1-0.1-4.6-0.4s-2.6-0.5-3.4-0.8v21.3h-18.1L236.5,43.4L236.5,43.4z
	 M254.7,79.7c1.7,0.7,3.8,1.1,6.4,1.1c3,0,5.4-1,7.2-2.9c1.9-1.9,2.8-5.1,2.8-9.4c0-1.2-0.1-2.4-0.4-3.6c-0.3-1.3-0.8-2.4-1.4-3.4
	s-1.5-1.8-2.5-2.5c-1-0.6-2.2-1-3.6-1c-3,0-5.2,0.9-6.5,2.8c-1.3,1.9-2,4.2-2,7L254.7,79.7L254.7,79.7z"/>
<g>
	<path class="logoBar1" d="M110.3,34.2l1.4-1.2C99.4,15.5,80.9,3.3,59,0.6S16.2,5.1,0,19l8.7,12.4C22,20.1,39.2,14.1,57,16.4
		c13.5,1.7,25.4,7.7,34.7,16.7c1.9-0.3,4-0.4,6-0.4C102.3,32.6,106.5,33.2,110.3,34.2z"/>
</g>
<path d="M120,74.5c-0.4-1.5-1-3-2-4.3s-2.3-2.5-3.9-3.6c-1.7-1.1-3.8-2.1-6.4-2.9c-1.7-0.6-3.3-1.1-4.9-1.5c-1.5-0.4-2.8-0.8-4-1.2
	s-2.1-0.9-2.8-1.4c-0.7-0.5-1-1.2-1-2.1c0-2,1.9-3,5.6-3c2.3,0,4.5,0.4,6.6,1.3c2.1,0.9,4.2,1.9,6.1,3l6.2-11.3
	c-3-1.9-6.1-3.4-9.5-4.4c-2.1-0.6-4.3-1-6.6-1.3c-1.3-0.1-2.6-0.2-3.9-0.2c-0.2,0-0.5,0-0.7,0c-3.2,0-6.2,0.4-8.9,1.2
	c-2.7,0.8-5,2-6.9,3.4s-3.4,3.1-4.4,5S77,55.1,77,57.3s0.4,4.1,1.1,5.7c0.8,1.7,1.8,3.1,3.2,4.3c1.4,1.2,3,2.3,4.9,3.2
	c1.9,0.9,3.9,1.7,6.2,2.3c4,1.2,6.7,2.2,8.3,2.9c1.5,0.7,2.3,1.6,2.3,2.8c0,1.6-0.7,2.6-2,3s-2.9,0.6-4.8,0.6c-1,0-2.2-0.1-3.5-0.4
	s-2.7-0.6-4-1s-2.6-1-3.8-1.6c-1.2-0.6-2.3-1.3-3.1-2L74,88.7c2.7,2.3,6.1,4,10.4,5.2s8.6,1.8,13,1.8c2.7,0,5.4-0.3,8.2-0.8
	c2.8-0.5,5.3-1.5,7.5-2.8s4-3,5.5-5.1c1.4-2.1,2.1-4.7,2.1-7.8C120.5,77.7,120.3,76.1,120,74.5z"/>
<path d="M68.8,65.4c-1.1-2.6-2.6-5-4.6-7s-4.3-3.6-6.9-4.8c-2.7-1.2-5.6-1.7-8.7-1.7c-3.2,0-6.1,0.6-8.8,1.7c-2.7,1.2-5,2.8-6.9,4.8
	c-1.9,2-3.4,4.3-4.5,7c-1.1,2.6-1.6,5.5-1.6,8.5s0.6,5.9,1.7,8.5s2.6,5,4.5,7c1.9,2,4.3,3.6,6.9,4.8c2.7,1.2,5.6,1.7,8.8,1.7
	c3.1,0,6.1-0.6,8.7-1.7c2.7-1.2,5-2.8,6.9-4.8s3.5-4.3,4.6-7c1.1-2.6,1.6-5.5,1.6-8.5S69.9,68,68.8,65.4z M58.1,78.2
	c-0.5,1.4-1.2,2.6-2,3.6c-0.9,1-2,1.9-3.2,2.5c-1.3,0.6-2.6,0.9-4.2,0.9c-1.6,0-3-0.3-4.2-0.9c-1.3-0.6-2.4-1.5-3.3-2.6
	c-0.9-1.1-1.6-2.3-2.1-3.6c-0.5-1.4-0.7-2.8-0.7-4.2c0-1.5,0.2-2.9,0.7-4.3s1.2-2.6,2-3.6c0.9-1,2-1.9,3.2-2.5
	c1.2-0.6,2.7-0.9,4.2-0.9c1.6,0,3,0.3,4.2,0.9C54,64.1,55.1,65,56,66c0.9,1.1,1.6,2.3,2.1,3.7c0.5,1.4,0.7,2.8,0.7,4.2
	C58.8,75.3,58.5,76.8,58.1,78.2z"/>
<g>
	<path class="logoBar2" d="M77.2,38.9c0.8-0.6,1.7-1.2,2.6-1.7c-7.1-5.8-15.7-9.7-25.2-10.9C40,24.5,26,29.3,15.1,38.6l9.2,13
		c7.7-6.5,17.7-10,28.1-8.7c6.2,0.8,11.9,3.2,16.7,6.7c0.4-1.1,0.8-2.2,1.4-3.2C72.1,43.6,74.4,41,77.2,38.9z"/>
</g>
</svg>
